# Blender v2.77 (sub 0) OBJ File: ''
# www.blender.org
mtllib Cash Chair.mtl
o cash_chair
v -0.505965 2.825884 -0.432112
v 0.462389 2.825884 -0.432112
v 0.462389 2.817465 -0.536848
v -0.505965 2.817465 -0.536848
v -0.440528 2.275053 -0.471177
v -0.440528 2.283366 -0.377607
v 0.406311 2.275052 -0.471177
v 0.406311 2.283366 -0.377607
v 0.329933 0.000000 -0.394182
v 0.339642 1.108379 -0.417554
v 0.346408 0.000000 -0.394182
v 0.256152 1.108379 -0.417554
v 0.346408 0.000000 -0.376145
v 0.339642 1.108379 -0.326147
v 0.256152 1.108379 -0.326147
v 0.329933 0.000000 -0.376145
v -0.246580 1.108379 -0.412563
v -0.396717 2.685752 -0.525215
v -0.246580 1.108379 -0.321157
v -0.396717 2.685752 -0.554749
v -0.319573 0.829262 -0.420652
v -0.345193 0.000000 -0.399436
v -0.319969 0.831307 -0.347585
v -0.345193 0.000000 -0.417473
v -0.253208 0.831307 -0.420652
v -0.328718 0.000000 -0.417473
v -0.328718 0.000000 -0.399436
v -0.253208 0.831307 -0.347585
v -0.330070 1.108379 -0.321157
v -0.423693 2.685752 -0.525215
v -0.330070 1.108379 -0.412563
v 0.352615 0.554189 0.342644
v 0.401662 -0.000000 0.388774
v 0.402598 0.554189 0.342644
v 0.418137 -0.000000 0.388774
v 0.352615 0.554189 0.287922
v 0.401662 -0.000000 0.370735
v 0.402598 0.554189 0.287922
v 0.418137 -0.000000 0.370735
v -0.423693 2.685752 -0.554749
v 0.387058 1.108379 0.255022
v 0.303568 1.108379 0.255022
v 0.303568 1.108379 0.346428
v 0.387058 1.108379 0.346428
v -0.380675 1.108378 0.388855
v -0.402878 -0.000000 0.422881
v -0.297185 1.108378 0.388855
v -0.419353 -0.000000 0.422881
v -0.380675 1.108379 0.297449
v -0.419353 -0.000000 0.404844
v -0.297185 1.108379 0.297449
v -0.402878 -0.000000 0.404844
v 0.351660 2.685752 -0.520376
v 0.351660 2.685752 -0.549910
v 0.324684 2.685752 -0.520376
v 0.324684 2.685752 -0.549910
v -0.283650 0.791890 -0.402229
v -0.123659 0.830073 -0.402229
v -0.123659 0.784862 -0.402229
v -0.283650 0.837101 -0.402229
v -0.283650 0.837101 -0.357019
v -0.123659 0.830073 -0.357019
v 0.298976 0.795664 -0.340874
v 0.298975 0.857397 -0.340874
v -0.123659 0.784862 -0.357019
v 0.298976 0.795664 -0.402605
v 0.298975 0.857397 -0.402605
v -0.283650 0.791890 -0.357019
v -0.342216 1.989917 -0.485681
v 0.132764 2.025979 -0.487737
v 0.132764 1.989980 -0.487737
v -0.342216 2.029702 -0.485681
v 0.132764 2.025979 -0.451736
v -0.342216 2.029702 -0.445894
v 0.310056 2.001775 -0.441785
v 0.310055 2.041912 -0.441785
v 0.132764 1.989980 -0.451736
v 0.310056 2.001775 -0.481921
v 0.310055 2.041912 -0.481921
v -0.342216 1.989917 -0.445894
v -0.160181 1.692984 -0.466072
v -0.331427 1.668119 -0.461638
v -0.336191 1.707561 -0.461572
v -0.164492 1.728673 -0.466011
v -0.164076 1.728673 -0.430015
v -0.335730 1.707561 -0.421790
v 0.308338 1.772650 -0.426611
v 0.303531 1.812441 -0.426548
v -0.159765 1.692984 -0.430073
v 0.307874 1.772650 -0.466748
v 0.303067 1.812441 -0.466680
v -0.330966 1.668119 -0.421858
v 0.509305 1.264645 0.505640
v -0.505965 1.264645 0.505640
v -0.505965 1.089847 0.504529
v 0.509305 1.089847 0.504529
v -0.381021 1.100946 -0.474434
v -0.381021 1.264645 -0.475547
v 0.384361 1.100946 -0.474434
v 0.384361 1.264645 -0.475547
vt 0.0225 1.3687
vt -0.4089 1.3687
vt -0.4089 1.3218
vt 0.0225 1.3218
vt 1.2979 0.0527
vt 1.2559 -0.1914
vt 1.2979 -0.1914
vt 1.2510 0.0537
vt 0.5566 1.3491
vt 0.1797 1.3911
vt 0.1797 1.3491
vt 0.5566 1.3911
vt 1.0654 0.0522
vt 1.0703 -0.1914
vt 1.1123 -0.1904
vt 1.1123 0.0542
vt 0.0225 0.9398
vt -0.0066 1.1827
vt -0.4089 0.9398
vt -0.3838 1.1827
vt 0.5815 0.7498
vt 0.1797 0.9931
vt 0.2046 0.7498
vt 0.6108 0.9931
vt -0.3491 0.9421
vt 0.1078 0.9491
vt -0.3491 0.9500
vt 0.1078 0.9147
vt -0.3491 0.9578
vt 0.1060 0.9866
vt 0.1055 1.0210
vt -0.3496 0.9660
vt -0.3496 0.9341
vt 0.1055 0.8771
vt 1.2842 -0.2832
vt 1.2773 -0.2832
vt 1.2773 -0.2900
vt 1.2842 -0.2900
vt 0.1086 1.2568
vt 0.7661 1.2454
vt 0.1069 1.2947
vt 0.7666 1.2332
vt -0.0066 1.2222
vt -0.3494 1.2147
vt -0.0054 1.1920
vt -0.3494 1.2220
vt -0.0058 1.2494
vt -0.3491 1.2289
vt -0.3496 1.2365
vt -0.0073 1.2795
vt -0.3496 1.2080
vt -0.0073 1.1642
vt 1.2842 -0.0166
vt 1.2842 -0.0098
vt 1.2773 -0.0166
vt 1.2773 -0.0098
vt 0.1072 1.1503
vt 0.7661 1.1982
vt 0.1094 1.1844
vt 0.7666 1.2101
vt 0.1104 1.2219
vt -0.1187 0.1416
vt -0.3496 0.1221
vt -0.1188 0.1211
vt -0.3496 0.1152
vt -0.1198 0.1646
vt -0.3496 0.1294
vt -0.3489 0.1011
vt -0.1174 0.0981
vt -0.3489 0.1079
vt -0.1177 0.0776
vt 1.2773 0.1265
vt 1.2842 0.1191
vt 1.2842 0.1265
vt 1.2773 0.1191
vt 1.2881 0.2681
vt 1.2773 0.2681
vt 1.2881 0.2559
vt 1.2773 0.2559
vt 0.1118 0.0884
vt 0.1113 0.0542
vt 0.1079 0.1982
vt 0.1113 0.1606
vt 0.1111 0.1270
vt 0.6958 0.1270
vt 0.2413 0.1187
vt 0.6968 0.0928
vt 0.2411 0.1265
vt 0.6968 0.1641
vt 0.2413 0.1348
vt 0.6958 0.1982
vt 0.2411 0.1426
vt 0.2411 0.1108
vt 0.6958 0.0552
vt 1.2773 -0.1465
vt 1.2773 -0.1533
vt 1.2842 -0.1465
vt 1.2842 -0.1533
vt 0.8740 -0.3203
vt 0.8740 -0.3330
vt 0.8853 -0.3203
vt 0.8853 -0.3330
vt 0.7676 1.2220
vt 0.7598 0.9261
vt 0.7603 0.9384
vt 0.7598 0.9733
vt 0.7593 0.9616
vt 0.7603 0.9496
vt 1.2666 0.4819
vt 1.2012 0.5000
vt 1.2012 0.4810
vt 1.2676 0.5000
vt 1.2676 0.5181
vt 1.2012 0.5190
vt 1.0264 0.5503
vt 1.0244 0.5254
vt 1.2012 0.5378
vt 1.2012 0.4624
vt 1.0254 0.4751
vt 1.0264 0.4497
vt 1.0244 0.5002
vt 1.2666 0.4629
vt 1.2676 0.5364
vt 1.2959 0.6963
vt 1.0986 0.7124
vt 1.0996 0.6975
vt 1.2959 0.7126
vt 1.0986 0.7275
vt 1.2969 0.7288
vt 1.0254 0.7449
vt 1.0244 0.7288
vt 1.0986 0.7424
vt 1.0996 0.6826
vt 1.0264 0.6960
vt 1.0254 0.6797
vt 1.0244 0.7126
vt 1.2959 0.6797
vt 1.2959 0.7449
vt 1.2227 -0.3203
vt 1.2949 -0.3213
vt 1.2939 -0.3047
vt 1.2227 -0.3047
vt 1.2227 -0.2900
vt 1.2949 -0.2891
vt 1.0264 -0.2725
vt 1.0254 -0.2881
vt 1.2227 -0.2754
vt 1.2227 -0.3350
vt 1.0264 -0.3213
vt 1.0264 -0.3379
vt 1.0254 -0.3047
vt 1.2939 -0.3379
vt 1.2939 -0.2725
vt 0.1797 1.1322
vt 0.6318 1.1322
vt 0.6318 1.2101
vt 0.1797 1.2101
vt 1.1904 0.9882
vt 0.7505 0.9931
vt 0.7500 0.9152
vt 1.1904 0.9152
vt 1.0645 0.2344
vt 1.4053 0.2344
vt 1.4053 0.3071
vt 1.0645 0.3071
vt 0.7710 1.2101
vt 1.2109 1.1344
vt 1.2119 1.2073
vt 0.7710 1.1322
vt 0.6318 0.1743
vt 0.5762 0.6106
vt 0.1797 0.1743
vt 0.2354 0.6106
vt 0.1797 0.0352
vt 0.5762 -0.4014
vt 0.6318 0.0352
vt 0.2354 -0.4014
vn 0.0000 0.9968 -0.0801
vn -0.9929 -0.1187 0.0105
vn -0.9929 -0.1186 0.0095
vn 0.0000 -0.9961 0.0885
vn 0.9948 -0.1019 0.0091
vn 0.9948 -0.1019 0.0082
vn 0.0000 0.1000 0.9950
vn -0.0000 -0.1202 -0.9928
vn 0.0000 -0.0211 -0.9998
vn 1.0000 0.0061 0.0000
vn 0.0000 -0.0451 0.9990
vn -0.9978 -0.0664 -0.0000
vn 0.0000 -1.0000 -0.0000
vn 0.9955 0.0948 0.0000
vn -0.9995 0.0307 -0.0063
vn -0.9995 0.0309 -0.0003
vn -0.9995 0.0309 0.0000
vn -0.9995 0.0307 -0.0062
vn 0.0001 -0.0038 -1.0000
vn -0.0002 -0.0037 -1.0000
vn 0.0000 -0.0038 -1.0000
vn 0.9959 -0.0905 0.0000
vn 0.0000 -0.0623 0.9981
vn 0.0000 0.1283 0.9917
vn 0.0000 -0.0950 0.9955
vn 0.9997 -0.0239 -0.0000
vn -0.0009 0.0289 -0.9996
vn -0.0001 0.0291 -0.9996
vn -0.0006 0.0290 -0.9996
vn 0.0000 0.0292 -0.9996
vn -0.9993 -0.0366 -0.0007
vn -0.9993 -0.0373 -0.0035
vn -0.9993 -0.0364 -0.0000
vn -0.9993 -0.0375 -0.0044
vn 0.0000 0.0830 0.9966
vn -0.9961 -0.0882 0.0000
vn 0.0000 -0.1478 -0.9890
vn 0.0000 1.0000 0.0000
vn 0.0000 -0.0593 -0.9982
vn 0.0000 -0.0068 1.0000
vn 0.0000 0.0307 0.9995
vn -0.9994 0.0349 0.0000
vn 0.0000 -0.0964 -0.9953
vn 0.9955 -0.0949 -0.0000
vn 0.0000 -0.0898 -0.9960
vn -0.9982 -0.0592 0.0000
vn -0.9991 0.0434 0.0000
vn 0.0000 0.1222 0.9925
vn 1.0000 -0.0076 0.0000
vn 0.0000 -0.0836 -0.9965
vn 0.0000 0.0000 -1.0000
vn 0.0439 0.9990 0.0000
vn -0.0382 -0.0000 0.9993
vn 0.0256 -0.9997 0.0000
vn -0.0009 0.0000 -1.0000
vn -0.0006 0.0000 -1.0000
vn -0.0645 0.9979 0.0000
vn -0.0439 -0.9990 0.0000
vn 0.0000 -0.0000 1.0000
vn -0.0043 0.0000 -1.0000
vn 0.0078 1.0000 0.0000
vn -0.0560 -0.0000 0.9984
vn 0.0664 -0.9978 0.0000
vn 0.0328 0.0000 -0.9995
vn -0.0895 0.9960 0.0000
vn 0.0001 -1.0000 0.0000
vn 0.0123 0.0000 0.9999
vn -0.0257 -0.0014 -0.9997
vn -0.1220 0.9925 0.0014
vn -0.0070 -0.0024 1.0000
vn -0.0070 -0.0025 1.0000
vn 0.1678 -0.9858 -0.0019
vn -0.0017 0.0015 -1.0000
vn -0.1763 0.9843 0.0020
vn 0.1437 -0.9896 -0.0017
vn 0.0474 0.0041 0.9989
vn 0.0474 0.0040 0.9989
vn 0.0000 -0.0064 1.0000
vn -0.9920 -0.0007 -0.1263
vn -0.9920 0.0008 -0.1266
vn -0.9920 0.0006 -0.1266
vn -0.9920 -0.0009 -0.1263
vn 0.0000 -0.0068 -1.0000
vn 0.9920 0.0006 -0.1266
vn 0.9920 -0.0009 -0.1263
vn 0.9920 -0.0007 -0.1263
vn 0.9920 0.0008 -0.1266
vn 0.0000 -0.9999 -0.0113
vn 0.9996 0.0280 0.0000
usemtl red_wood_gloss_2_Inst
s 1
f 1/1/1 2/2/1 3/3/1
f 1/1/1 3/3/1 4/4/1
f 1/5/2 5/6/2 6/7/2
f 5/6/3 1/5/3 4/8/3
f 6/9/4 7/10/4 8/11/4
f 7/10/4 6/9/4 5/12/4
f 2/13/5 8/14/5 7/15/5
f 2/13/6 7/15/6 3/16/6
f 1/17/7 6/18/7 2/19/7
f 2/19/7 6/18/7 8/20/7
f 5/21/8 3/22/8 7/23/8
f 3/22/8 5/21/8 4/24/8
f 9/25/9 10/26/9 11/27/9
f 10/26/9 9/25/9 12/28/9
f 13/29/10 10/26/10 14/30/10
f 10/26/10 13/29/10 11/27/10
f 15/31/11 16/32/11 14/30/11
f 14/30/11 16/32/11 13/29/11
f 12/28/12 16/33/12 15/34/12
f 16/33/12 12/28/12 9/25/12
f 13/35/13 16/36/13 9/37/13
f 13/35/13 9/37/13 11/38/13
f 17/39/14 18/40/14 19/41/14
f 18/40/14 17/39/14 20/42/14
f 21/43/15 22/44/16 23/45/15
f 22/44/17 21/43/18 24/46/17
f 25/47/19 26/48/20 21/43/19
f 24/46/21 21/43/21 26/48/21
f 27/49/22 25/47/22 28/50/22
f 25/47/22 27/49/22 26/48/22
f 23/45/23 27/51/23 28/52/23
f 27/51/23 23/45/23 22/44/23
f 27/53/13 22/54/13 26/55/13
f 22/54/13 24/56/13 26/55/13
f 19/57/24 18/58/24 29/59/24
f 30/60/24 29/59/24 18/58/24
f 29/59/25 23/45/25 19/57/25
f 19/57/25 23/45/25 28/52/25
f 28/50/26 17/39/26 19/41/26
f 17/39/26 28/50/26 25/47/26
f 21/43/27 31/61/28 25/47/27
f 25/47/29 31/61/30 17/39/30
f 31/61/31 23/45/32 29/59/33
f 23/45/32 31/61/31 21/43/34
f 32/62/35 33/63/35 34/64/35
f 34/64/35 33/63/35 35/65/35
f 36/66/36 37/67/36 32/62/36
f 33/63/36 32/62/36 37/67/36
f 37/68/37 38/69/37 39/70/37
f 38/69/37 37/68/37 36/71/37
f 33/72/13 39/73/13 35/74/13
f 39/73/13 33/72/13 37/75/13
f 30/76/38 18/77/38 40/78/38
f 18/77/38 20/79/38 40/78/38
f 36/71/39 41/80/39 38/69/39
f 41/80/39 36/71/39 42/81/39
f 42/82/36 36/66/36 43/83/36
f 32/62/36 43/83/36 36/66/36
f 43/83/40 32/62/40 44/84/40
f 44/84/40 32/62/40 34/64/40
f 45/85/41 46/86/41 47/87/41
f 46/86/41 45/85/41 48/88/41
f 49/89/42 50/90/42 45/85/42
f 48/88/42 45/85/42 50/90/42
f 51/91/43 52/92/43 49/89/43
f 50/90/43 49/89/43 52/92/43
f 47/87/44 52/93/44 51/94/44
f 52/93/44 47/87/44 46/86/44
f 48/95/13 50/96/13 46/97/13
f 46/97/13 50/96/13 52/98/13
f 53/99/38 54/100/38 55/101/38
f 55/101/38 54/100/38 56/102/38
f 31/61/45 20/42/45 17/39/45
f 20/42/45 31/61/45 40/103/45
f 30/60/46 31/61/46 29/59/46
f 40/103/46 31/61/46 30/60/46
f 55/104/47 12/28/47 15/34/47
f 56/105/47 12/28/47 55/104/47
f 55/106/48 14/30/48 53/107/48
f 14/30/48 55/106/48 15/31/48
f 10/26/49 53/107/49 14/30/49
f 53/107/49 10/26/49 54/108/49
f 12/28/50 56/105/50 10/26/50
f 10/26/50 56/105/50 54/108/50
f 57/109/51 58/110/51 59/111/51
f 58/110/51 57/109/51 60/112/51
f 61/113/52 62/114/52 58/110/52
f 61/113/52 58/110/52 60/112/52
f 62/114/53 63/115/53 64/116/53
f 63/115/53 62/114/53 65/117/53
f 65/118/54 66/119/54 63/120/54
f 66/119/54 65/118/54 59/111/54
f 66/119/55 59/111/56 58/110/56
f 66/119/55 58/110/55 67/121/55
f 62/114/57 64/116/57 67/121/57
f 62/114/57 67/121/57 58/110/57
f 65/118/58 68/122/58 57/109/58
f 65/118/58 57/109/58 59/111/58
f 62/114/59 61/113/59 68/123/59
f 62/114/59 68/123/59 65/117/59
f 69/124/60 70/125/60 71/126/60
f 70/125/60 69/124/60 72/127/60
f 73/128/61 72/127/61 74/129/61
f 72/127/61 73/128/61 70/125/61
f 73/128/62 75/130/62 76/131/62
f 75/130/62 73/128/62 77/132/62
f 77/133/63 78/134/63 75/135/63
f 78/134/63 77/133/63 71/126/63
f 78/134/64 71/126/64 70/125/64
f 78/134/64 70/125/64 79/136/64
f 73/128/65 76/131/65 79/136/65
f 73/128/65 79/136/65 70/125/65
f 77/133/66 80/137/66 69/124/66
f 77/133/66 69/124/66 71/126/66
f 73/128/67 74/129/67 80/138/67
f 73/128/67 80/138/67 77/132/67
f 81/139/68 82/140/68 83/141/68
f 81/139/68 83/141/68 84/142/68
f 85/143/69 83/141/69 86/144/69
f 83/141/69 85/143/69 84/142/69
f 85/143/70 87/145/70 88/146/70
f 87/145/71 85/143/71 89/147/71
f 89/148/72 90/149/72 87/150/72
f 90/149/72 89/148/72 81/139/72
f 90/149/73 81/139/73 84/142/73
f 90/149/73 84/142/73 91/151/73
f 85/143/74 88/146/74 91/151/74
f 85/143/74 91/151/74 84/142/74
f 89/148/75 92/152/75 82/140/75
f 89/148/75 82/140/75 81/139/75
f 86/144/76 89/147/76 85/143/76
f 89/147/77 86/144/77 92/153/77
f 93/154/78 94/155/78 95/156/78
f 93/154/78 95/156/78 96/157/78
f 97/158/79 95/159/80 94/160/80
f 94/160/81 98/161/82 97/158/82
f 99/162/83 97/163/83 98/164/83
f 99/162/83 98/164/83 100/165/83
f 93/166/84 99/167/85 100/168/85
f 99/167/86 93/166/87 96/169/87
f 95/170/88 97/171/88 96/172/88
f 96/172/88 97/171/88 99/173/88
f 93/174/38 98/175/38 94/176/38
f 98/175/38 93/174/38 100/177/38
f 39/70/89 34/64/89 35/65/89
f 34/64/89 39/70/89 38/69/89
f 38/69/89 44/84/89 34/64/89
f 44/84/89 38/69/89 41/80/89
