# 3ds Max Wavefront OBJ Exporter v0.99 - (c)2007 guruware
# File Created: 12.05.2025 14:42:06

mtllib White1.mtl

#
# object Box779
#

v  30.4103 1.3842 -21.4408
v  -28.4084 0.4729 -21.9101
v  -30.3967 128.7986 -21.9101
v  28.4220 129.7100 -21.4408
v  -30.4142 128.7984 -19.7189
v  -28.4258 0.4726 -19.7189
v  30.3928 1.3840 -19.2496
v  28.4045 129.7097 -19.2496
# 8 vertices

vn 0.0080 0.0001 -1.0000
vn -0.0080 -0.0001 1.0000
vn -0.0155 0.9999 -0.0000
vn -0.9998 -0.0155 -0.0080
vn 0.0155 -0.9999 -0.0000
vn 0.9998 0.0155 0.0080
# 6 vertex normals

vt -779.4690 72.3497 8.6783
vt -757.4673 72.3497 8.6783
vt -757.4673 120.3497 8.6783
vt -779.4690 120.3497 8.6783
vt -869.8397 120.3497 9.4979
vt -869.8397 72.3497 9.4979
vt -847.8380 72.3497 9.4979
vt -847.8380 120.3497 9.4979
vt -386.3776 -219.5915 56.9982
vt -386.3776 -220.4111 56.9982
vt -364.3759 -220.4111 56.9982
vt -364.3759 -219.5915 56.9982
vt -434.6896 -219.5915 56.6862
vt -434.6896 -220.4111 56.6862
vt -386.6896 -220.4111 56.6862
vt -386.6896 -219.5915 56.6862
vt -178.9892 -169.0242 104.9982
vt -178.9892 -169.8437 104.9982
vt -156.9875 -169.8437 104.9982
vt -156.9875 -169.0242 104.9982
vt -273.6932 -219.5915 34.6845
vt -273.6932 -220.4111 34.6845
vt -225.6932 -220.4111 34.6845
vt -225.6932 -219.5915 34.6845
# 24 texture coords

o Box779
g Box779
usemtl White_Mat__wood_
s 2
f 1/1/1 2/2/1 3/3/1 
f 3/3/1 4/4/1 1/1/1 
s 4
f 5/5/2 6/6/2 7/7/2 
f 7/7/2 8/8/2 5/5/2 
s 8
f 3/9/3 5/10/3 8/11/3 
f 8/11/3 4/12/3 3/9/3 
s 16
f 2/13/4 6/14/4 5/15/4 
f 5/15/4 3/16/4 2/13/4 
s 32
f 1/17/5 7/18/5 6/19/5 
f 6/19/5 2/20/5 1/17/5 
s 64
f 4/21/6 8/22/6 7/23/6 
f 7/23/6 1/24/6 4/21/6 
# 12 faces

